<?xml version="1.0" encoding="UTF-8"?>
<svg version="1.1" xmlns="http://www.w3.org/2000/svg" width="32" height="32">
<path d="M0 0 C1.06734375 -0.00128906 2.1346875 -0.00257812 3.234375 -0.00390625 C4.35328125 -0.00003906 5.4721875 0.00382812 6.625 0.0078125 C7.74390625 0.00394531 8.8628125 0.00007813 10.015625 -0.00390625 C11.61664062 -0.00197266 11.61664062 -0.00197266 13.25 0 C14.72339844 0.00169189 14.72339844 0.00169189 16.2265625 0.00341797 C18.625 0.1328125 18.625 0.1328125 20.625 1.1328125 C20.65005615 1.73230713 20.6751123 2.33180176 20.70092773 2.94946289 C20.81785773 5.69824574 20.94013947 8.44676625 21.0625 11.1953125 C21.10181641 12.13826172 21.14113281 13.08121094 21.18164062 14.05273438 C21.36757442 18.15758039 21.5761139 22.1930391 22.22265625 26.25390625 C22.42181641 27.67896484 22.42181641 27.67896484 22.625 29.1328125 C21.625 30.1328125 21.625 30.1328125 18.75756836 30.24633789 C17.50596924 30.24110107 16.25437012 30.23586426 14.96484375 30.23046875 C13.96814415 30.22834633 13.96814415 30.22834633 12.9513092 30.22618103 C10.82166101 30.22056768 8.69211661 30.20801304 6.5625 30.1953125 C5.12174631 30.19029921 3.68099097 30.18573601 2.24023438 30.18164062 C-1.29821102 30.17059395 -4.83659539 30.15332042 -8.375 30.1328125 C-9.17453138 26.84585017 -9.47158936 25.42258058 -8.375 22.1328125 C-8.22784801 20.50714171 -8.12778133 18.87694393 -8.05859375 17.24609375 C-8.01669922 16.30830078 -7.97480469 15.37050781 -7.93164062 14.40429688 C-7.89232422 13.42783203 -7.85300781 12.45136719 -7.8125 11.4453125 C-7.76931641 10.45724609 -7.72613281 9.46917969 -7.68164062 8.45117188 C-7.57558346 6.01185704 -7.47352286 3.57244137 -7.375 1.1328125 C-4.78776011 -0.16080744 -2.89386997 0.00332301 0 0 Z " fill="#1B5A72" transform="translate(9.375,0.8671875)"/>
<path d="M0 0 C9.24 0 18.48 0 28 0 C30 4 30 4 29 9 C19.1 9 9.2 9 -1 9 C-2 4 -2 4 0 0 Z " fill="#C3D6E3" transform="translate(2,22)"/>
<path d="M0 0 C3.63 0 7.26 0 11 0 C11 0.33 11 0.66 11 1 C13.31 1.33 15.62 1.66 18 2 C18 3.32 18 4.64 18 6 C16.35 6 14.7 6 13 6 C13 8.64 13 11.28 13 14 C10.00519083 14.8723412 7.36424089 15.10829766 4.25 15.0625 C2.14625 15.0315625 2.14625 15.0315625 0 15 C0 10.05 0 5.1 0 0 Z " fill="#0D4F50" transform="translate(5,5)"/>
<path d="M0 0 C7.26 0 14.52 0 22 0 C22 5.28 22 10.56 22 16 C17.71 16 13.42 16 9 16 C10.32 15.67 11.64 15.34 13 15 C13 12.36 13 9.72 13 7 C14.65 7 16.3 7 18 7 C18 5.68 18 4.36 18 3 C17.03578125 3.03480469 16.0715625 3.06960938 15.078125 3.10546875 C13.81484375 3.13253906 12.5515625 3.15960938 11.25 3.1875 C9.99703125 3.22230469 8.7440625 3.25710938 7.453125 3.29296875 C4 3 4 3 0 0 Z " fill="#104259" transform="translate(5,4)"/>
<path d="M0 0 C10.56 0 21.12 0 32 0 C31.67 0.99 31.34 1.98 31 3 C21.1 3 11.2 3 1 3 C0.67 2.01 0.34 1.02 0 0 Z " fill="#A5BCC9" transform="translate(0,28)"/>
<path d="M0 0 C4.29 0 8.58 0 13 0 C13 0.99 13 1.98 13 3 C11.68 3 10.36 3 9 3 C9 5.31 9 7.62 9 10 C7.68 10 6.36 10 5 10 C5 7.69 5 5.38 5 3 C3.35 3 1.7 3 0 3 C0 2.01 0 1.02 0 0 Z " fill="#00F802" transform="translate(9,8)"/>
</svg>
