<?xml version="1.0" encoding="UTF-8"?>
<svg version="1.1" xmlns="http://www.w3.org/2000/svg" width="24" height="24">
<path d="M0 0 C7.26 0 14.52 0 22 0 C22.33 7.26 22.66 14.52 23 22 C15.08 22 7.16 22 -1 22 C-0.67 14.74 -0.34 7.48 0 0 Z " fill="#205D78" transform="translate(1,1)"/>
<path d="M0 0 C0.98484375 -0.00128906 1.9696875 -0.00257812 2.984375 -0.00390625 C4.02078125 -0.00003906 5.0571875 0.00382812 6.125 0.0078125 C7.67960938 0.00201172 7.67960938 0.00201172 9.265625 -0.00390625 C10.25046875 -0.00261719 11.2353125 -0.00132813 12.25 0 C13.16007812 0.00112793 14.07015625 0.00225586 15.0078125 0.00341797 C17.125 0.1328125 17.125 0.1328125 18.125 1.1328125 C18.125 2.7828125 18.125 4.4328125 18.125 6.1328125 C10.205 6.1328125 2.285 6.1328125 -5.875 6.1328125 C-5.875 -0.34350773 -5.77868019 0.00716196 0 0 Z " fill="#C6D6E6" transform="translate(5.875,16.8671875)"/>
<path d="M0 0 C5.28 0 10.56 0 16 0 C15.01 0.66 14.02 1.32 13 2 C13 2.99 13 3.98 13 5 C12.01 5 11.02 5 10 5 C10.020625 5.969375 10.04125 6.93875 10.0625 7.9375 C10 11 10 11 9 12 C5.99668982 12.14193337 3.00782866 12.04236378 0 12 C0 8.04 0 4.08 0 0 Z " fill="#0E5A4D" transform="translate(4,3)"/>
<path d="M0 0 C4.29 0 8.58 0 13 0 C13 3.63 13 7.26 13 11 C13.99 11 14.98 11 16 11 C16 11.66 16 12.32 16 13 C8.74 13 1.48 13 -6 13 C-6 12.34 -6 11.68 -6 11 C-0.06 10.505 -0.06 10.505 6 10 C6.33 8.02 6.66 6.04 7 4 C7.99 4 8.98 4 10 4 C10 3.01 10 2.02 10 1 C6.7 1 3.4 1 0 1 C0 0.67 0 0.34 0 0 Z " fill="#1A4E66" transform="translate(7,4)"/>
<path d="M0 0 C3.3 0 6.6 0 10 0 C10 0.66 10 1.32 10 2 C8.68 2 7.36 2 6 2 C6 3.65 6 5.3 6 7 C5.34 7 4.68 7 4 7 C4 5.35 4 3.7 4 2 C2.68 2 1.36 2 0 2 C0 1.34 0 0.68 0 0 Z " fill="#00FA02" transform="translate(7,6)"/>
</svg>
