<?xml version="1.0" encoding="UTF-8"?>
<svg version="1.1" xmlns="http://www.w3.org/2000/svg" width="16" height="16">
<path d="M0 0 C4.62 0 9.24 0 14 0 C14.33 5.28 14.66 10.56 15 16 C9.72 16 4.44 16 -1 16 C-0.67 10.72 -0.34 5.44 0 0 Z " fill="#174F6A" transform="translate(1,0)"/>
<path d="M0 0 C5.28 0 10.56 0 16 0 C16 1.65 16 3.3 16 5 C10.72 5 5.44 5 0 5 C0 3.35 0 1.7 0 0 Z " fill="#BED0E0" transform="translate(0,11)"/>
<path d="M0 0 C2.05078125 0.03255208 4.1015625 0.06510417 6.15234375 0.09765625 C6.15234375 2.40765625 6.15234375 4.71765625 6.15234375 7.09765625 C3.51234375 7.09765625 0.87234375 7.09765625 -1.84765625 7.09765625 C-2.22898924 5.10625065 -2.56091207 3.10486548 -2.84765625 1.09765625 C-1.84765625 0.09765625 -1.84765625 0.09765625 0 0 Z " fill="#097C3A" transform="translate(6.84765625,2.90234375)"/>
<path d="M0 0 C4.62 0 9.24 0 14 0 C12 2 12 2 9.6171875 2.1953125 C8.71226563 2.17210937 7.80734375 2.14890625 6.875 2.125 C5.50988281 2.09792969 5.50988281 2.09792969 4.1171875 2.0703125 C3.41851562 2.04710937 2.71984375 2.02390625 2 2 C2 4.97 2 7.94 2 11 C1.34 11 0.68 11 0 11 C0 7.37 0 3.74 0 0 Z " fill="#1D5C79" transform="translate(1,0)"/>
</svg>
