<?xml version="1.0" encoding="UTF-8"?>
<svg version="1.1" xmlns="http://www.w3.org/2000/svg" width="64" height="64">
<path d="M0 0 C17.82 0 35.64 0 54 0 C54.25 19.875 54.25 19.875 54.29785156 26.08544922 C54.30954085 37.98521868 54.30954085 37.98521868 58.24902344 49.06689453 C59 51 59 51 58 56 C37.54 56 17.08 56 -4 56 C-5.08466041 50.57669793 -5.08466041 50.57669793 -3.109375 47.0078125 C0.54151045 38.54039746 -0.31973761 28.92594549 -0.25 19.875 C-0.1675 13.31625 -0.085 6.7575 0 0 Z " fill="#0F4256" transform="translate(5,4)"/>
<path d="M0 0 C18.48 0 36.96 0 56 0 C60 10 60 10 59 15 C38.54 15 18.08 15 -3 15 C-4 10 -4 10 0 0 Z " fill="#CBDCEB" transform="translate(4,45)"/>
<path d="M0 0 C17.82 0 35.64 0 54 0 C54 13.53 54 27.06 54 41 C36.18 41 18.36 41 0 41 C0 27.47 0 13.94 0 0 Z M5 5 C5 15.23 5 25.46 5 36 C19.52 36 34.04 36 49 36 C49 25.77 49 15.54 49 5 C34.48 5 19.96 5 5 5 Z " fill="#205C75" transform="translate(5,4)"/>
<path d="M0 0 C21.12 0 42.24 0 64 0 C63.67 1.65 63.34 3.3 63 5 C42.54 5 22.08 5 1 5 C0.67 3.35 0.34 1.7 0 0 Z " fill="#B4C5D6" transform="translate(0,55)"/>
<path d="M0 0 C1.12019531 -0.00128906 2.24039062 -0.00257812 3.39453125 -0.00390625 C4.57402344 -0.00003906 5.75351562 0.00382813 6.96875 0.0078125 C8.73798828 0.00201172 8.73798828 0.00201172 10.54296875 -0.00390625 C12.22326172 -0.00197266 12.22326172 -0.00197266 13.9375 0 C14.97326172 0.00112793 16.00902344 0.00225586 17.07617188 0.00341797 C19.46875 0.1328125 19.46875 0.1328125 20.46875 1.1328125 C20.59375 3.6328125 20.59375 3.6328125 20.46875 6.1328125 C18.50052114 8.10104136 15.12066291 7.79529631 12.46875 8.1328125 C12.37787109 9.52306641 12.37787109 9.52306641 12.28515625 10.94140625 C12.20136719 12.13894531 12.11757813 13.33648437 12.03125 14.5703125 C11.95003906 15.76527344 11.86882813 16.96023437 11.78515625 18.19140625 C11.46875 21.1328125 11.46875 21.1328125 10.46875 22.1328125 C7.46875 22.2578125 7.46875 22.2578125 4.46875 22.1328125 C2.59050109 20.25456359 3.07772603 17.09345974 2.90625 14.5703125 C2.82246094 13.37277344 2.73867188 12.17523438 2.65234375 10.94140625 C2.59175781 10.01457031 2.53117187 9.08773438 2.46875 8.1328125 C1.169375 7.9884375 -0.13 7.8440625 -1.46875 7.6953125 C-5.40625 7.2578125 -5.40625 7.2578125 -6.53125 6.1328125 C-6.65625 3.6328125 -6.65625 3.6328125 -6.53125 1.1328125 C-4.78579395 -0.61264355 -2.37000783 0.0025809 0 0 Z " fill="#00FF00" transform="translate(24.53125,14.8671875)"/>
<path d="M0 0 C19.8 0 39.6 0 60 0 C60 1.32 60 2.64 60 4 C59.505 3.01 59.505 3.01 59 2 C39.53 2 20.06 2 0 2 C0 1.34 0 0.68 0 0 Z " fill="#A9B9CB" transform="translate(3,56)"/>
<path d="M0 0 C5.94 0 11.88 0 18 0 C18.66 1.65 19.32 3.3 20 5 C12.74 5 5.48 5 -2 5 C-1.34 3.35 -0.68 1.7 0 0 Z " fill="#FFFFFF" transform="translate(23,50)"/>
</svg>
